
<svg xmlns="http://www.w3.org/2000/svg" viewBox="0 0 480 240" fill="none" stroke="currentColor" stroke-width="1.75" stroke-linecap="round" stroke-linejoin="round">
  

  
  <g transform="translate(40,40)">
    <path d="M0 16 C8 0 24 0 32 16 C24 32 8 32 0 16 Z"></path>
    <circle cx="16" cy="16" r="5"></circle>
    <circle cx="16" cy="16" r="1.5" fill="currentColor" class="accent"></circle>
    <text x="16" y="56" text-anchor="middle" class="lbl">OBSERVAR</text>
  </g>

  
  <g transform="translate(120,40)">
    <circle cx="13" cy="13" r="10"></circle>
    <path d="M20 20 L30 30"></path>
    <path d="M13 8 V13 H17" class="accent"></path>
  </g>
  <text x="136" y="96" text-anchor="middle" class="lbl">OSINT</text>

  
  <g transform="translate(200,40)" stroke-width="1.5">
    <path d="M4 22 C4 12 10 4 16 4 C22 4 28 10 28 18"></path>
    <path d="M8 24 C8 16 12 10 16 10 C20 10 24 14 24 20"></path>
    <path d="M12 26 C12 20 14 16 16 16 C18 16 20 18 20 22"></path>
    <path d="M16 22 V28" class="accent"></path>
  </g>
  <text x="216" y="96" text-anchor="middle" class="lbl">IDENTIDAD</text>

  
  <g transform="translate(280,40)">
    <path d="M2 8 H12 L15 12 H30 V28 H2 Z"></path>
    <path d="M2 16 H30" class="accent"></path>
  </g>
  <text x="296" y="96" text-anchor="middle" class="lbl">EXPEDIENTE</text>

  
  <g transform="translate(360,40)">
    <path d="M16 4 L8 8 L24 8 Z"></path>
    <path d="M6 8 H26 V14 L22 16 V30 H10 V16 L6 14 Z"></path>
    <path d="M16 14 V26" class="accent"></path>
  </g>
  <text x="376" y="96" text-anchor="middle" class="lbl">INVESTIGADOR</text>

  
  <g transform="translate(40,130)">
    <path d="M16 4 C22 4 28 9 28 16 C28 24 16 32 16 32 C16 32 4 24 4 16 C4 9 10 4 16 4 Z"></path>
    <circle cx="16" cy="16" r="3" class="accent" fill="#0066FF"></circle>
  </g>
  <text x="56" y="184" text-anchor="middle" class="lbl">RASTREO</text>

  
  <g transform="translate(120,130)">
    <rect x="2" y="6" width="10" height="14"></rect>
    <rect x="14" y="6" width="16" height="20"></rect>
    <path d="M16 12 L24 12 M16 16 L28 16 M16 20 L22 20" class="accent"></path>
  </g>
  <text x="136" y="184" text-anchor="middle" class="lbl">SALA OPS</text>

  
  <g transform="translate(200,130)">
    <rect x="6" y="14" width="20" height="14" rx="2"></rect>
    <path d="M10 14 V10 C10 6 13 4 16 4 C19 4 22 6 22 10 V14"></path>
    <circle cx="16" cy="21" r="2" class="accent" fill="#0066FF"></circle>
  </g>
  <text x="216" y="184" text-anchor="middle" class="lbl">DISCRECIÓN</text>

  
  <g transform="translate(280,130)">
    <path d="M6 4 H22 L26 8 V28 H6 Z"></path>
    <path d="M10 14 H22 M10 18 H22 M10 22 H18" class="accent"></path>
  </g>
  <text x="296" y="184" text-anchor="middle" class="lbl">INFORME</text>

  
  <g transform="translate(360,130)">
    <path d="M4 16 H28 M22 10 L28 16 L22 22" class="accent"></path>
  </g>
  <text x="376" y="184" text-anchor="middle" class="lbl">ABRIR CASO</text>
</svg>